<svg xmlns="http://www.w3.org/2000/svg" viewBox="0 0 207.99 193.38"><defs><style>.cls-1{fill:#003876;}</style></defs><title>Asset 3</title><g id="Layer_2" data-name="Layer 2"><g id="Layer_1-2" data-name="Layer 1"><path class="cls-1" d="M1000.22,443.46l6.19-32-16.83-39.59-18.83-19.66s-1.22-1-1.1-.91c30.19,13.12,52.77,48.73,56.54,91.86,0,.08,0,.24,0,.24Zm-9.62.05-33.14-.11V353l.41.35c19.46,16.75,32.73,50.19,32.73,88.72,0,.47,0,1.4,0,1.4m35.49-.13-25.81.08s-.06-3.06-.12-4.78a138.28,138.28,0,0,0-.91-15.85c-2.48-24-9.77-43.42-20.38-60a69.46,69.46,0,0,0-9.16-11.41l-.12-.16s2.52,1.52,3.93,2.42c2.06,1.33,4.12,2.67,6.05,4a124.93,124.93,0,0,1,16,13.75c.32.32,1.41,1.44,2.61,2.77s2.5,2.87,3.46,4a105.2,105.2,0,0,1,11.16,16.18,92.76,92.76,0,0,1,4.85,10.27,125.22,125.22,0,0,1,8.41,37.51s.07,1.19.07,1.19m-.07-1.19v0m12.89-3.29-12.76-51.66-26.77-28.63s-7.92-5.62-12.45-8.7a35.64,35.64,0,0,0-3.16-1.93l.15.06a107,107,0,0,1,66.79,95.23,1,1,0,0,0,0,.11Zm-3.05,4.5s-.94-10.46-2.81-19.8a117.47,117.47,0,0,0-4.43-15.79,115.71,115.71,0,0,0-6.15-15c-5-9.83-10.09-19-19.28-28.74a107,107,0,0,0-9.61-9.16c-2.46-2-4.61-3.61-6.19-4.7.92.55,2.1,1.25,3.56,2.09,2.73,1.56,6,3.48,9.44,5.81,1.55,1.05,3,2.17,4.61,3.38.35.26,5.25,4.05,10.06,8.61a116.91,116.91,0,0,1,23.44,31.71,113.42,113.42,0,0,1,9.3,26c1.36,6,2.39,15.65,2.39,15.65Zm-9.77,0-25.81.08s-.06-3.06-.12-4.78a138.28,138.28,0,0,0-.91-15.85c-2.48-24-9.77-43.42-20.38-60a69.46,69.46,0,0,0-9.16-11.41l-.12-.16s2.52,1.52,3.93,2.42c2.06,1.33,4.12,2.67,6.05,4a124.93,124.93,0,0,1,16,13.75c.32.32,1.41,1.44,2.61,2.77s2.5,2.87,3.46,4a105.2,105.2,0,0,1,11.16,16.18,92.76,92.76,0,0,1,4.85,10.27,125.22,125.22,0,0,1,8.41,37.51s.07,1.19.07,1.19m-.07-1.19v0m-91.84-90-18.83,19.67-16.83,39.6,6.18,32.05-26-.1s0-.16,0-.24c3.78-43.14,26.36-78.76,56.55-91.88.11-.05-1.1.9-1.1.9m-19.86,91.37v-1.4c0-38.54,13.27-72,32.73-88.74l.41-.36v90.39Zm-35.41-1.31h0v0h0m56.3-90.83a69.54,69.54,0,0,0-9.16,11.41c-10.61,16.61-17.89,36-20.38,60a136,136,0,0,0-.9,15.86c-.06,1.72-.13,4.78-.13,4.78l-25.81-.08s.07-1.05.08-1.18h0a125.27,125.27,0,0,1,8.41-37.52,93.76,93.76,0,0,1,4.85-10.28,106.19,106.19,0,0,1,11.16-16.18c1-1.15,2.26-2.69,3.46-4s2.29-2.45,2.6-2.77a125.87,125.87,0,0,1,16-13.75c1.92-1.38,4-2.72,6-4,1.42-.91,3.93-2.42,3.93-2.42ZM918,349.93c-4.52,3.09-12.45,8.71-12.45,8.71l-26.76,28.63-13.61,56.2-11,0a.59.59,0,0,1,0-.11A107,107,0,0,1,921,348.06l.15-.06a36.56,36.56,0,0,0-3.17,1.93m-16.25,14.13c-9.19,9.7-14.28,18.91-19.28,28.74a141.22,141.22,0,0,0-10.58,30.85c-1.87,9.34-2.81,19.8-2.81,19.8H854.74s1-9.64,2.39-15.66a113.42,113.42,0,0,1,9.3-26,117.39,117.39,0,0,1,13-20.33,118.71,118.71,0,0,1,10.4-11.39c4.81-4.56,9.71-8.35,10.06-8.61,1.62-1.21,3.05-2.34,4.61-3.38,3.47-2.33,6.71-4.26,9.43-5.82,1.46-.84,2.64-1.54,3.56-2.09-1.57,1.09-3.72,2.69-6.18,4.71a105.64,105.64,0,0,0-9.61,9.16m-22.83,78.19h0v0h0m56.3-90.83a69.54,69.54,0,0,0-9.16,11.41c-10.61,16.61-17.89,36-20.38,60a136,136,0,0,0-.9,15.86c-.06,1.72-.13,4.78-.13,4.78l-25.81-.08s.07-1.05.08-1.18h0a125.27,125.27,0,0,1,8.41-37.52,93.76,93.76,0,0,1,4.85-10.28,106.19,106.19,0,0,1,11.16-16.18c1-1.15,2.26-2.69,3.46-4s2.29-2.45,2.6-2.77a125.87,125.87,0,0,1,16-13.75c1.92-1.38,4-2.72,6-4,1.42-.91,3.93-2.42,3.93-2.42Zm36.5-35.67H933a.65.65,0,0,1-.65-.64v-1.49A.65.65,0,0,1,933,313h38.69a.65.65,0,0,1,.65.64v1.49a.65.65,0,0,1-.65.64m0,29.22H933a.65.65,0,0,1-.65-.65v-1.48a.65.65,0,0,1,.65-.65h38.69a.65.65,0,0,1,.65.65v1.48a.65.65,0,0,1-.65.65m84.1,108.83H849.11a.65.65,0,0,1-.64-.65v-1.74a.64.64,0,0,1,.64-.64h206.7a.64.64,0,0,1,.64.64v1.74a.64.64,0,0,1-.64.65m-107-161.17h-.6a.14.14,0,0,1-.14-.14V291a.13.13,0,0,1,.14-.13h.6a.13.13,0,0,1,.14.13v1.5a.14.14,0,0,1-.14.14m7.84,0H956a.14.14,0,0,1-.14-.14V291a.13.13,0,0,1,.14-.13h.6a.13.13,0,0,1,.14.13v1.5a.14.14,0,0,1-.14.14m-8.57-.16h8.7v.47H948Zm4.72-5.79H952a.17.17,0,0,1-.17-.17v-1.6a.18.18,0,0,1,.17-.18h.71a.18.18,0,0,1,.17.18v1.6a.17.17,0,0,1-.17.17m-.6,10.1v-10.1h.51v10.1Zm-14.71,14.29V311c0-8.6,6.72-15.56,15-15.56s14.9,6.93,15,15.5v.13Zm33.74,4.55h-37.6a1.16,1.16,0,0,1-1.16-1.16v-.32a1.16,1.16,0,0,1,1.16-1.16h37.6a1.16,1.16,0,0,1,1.16,1.16v.32a1.16,1.16,0,0,1-1.16,1.16m0,29.32h-37.6a1.16,1.16,0,0,1-1.16-1.16v-.32a1.16,1.16,0,0,1,1.16-1.16h37.6a1.16,1.16,0,0,1,1.16,1.16v.32a1.16,1.16,0,0,1-1.16,1.16m-16.89-5.11h-3.76a1.16,1.16,0,0,1-1.16-1.16V318.55a1.16,1.16,0,0,1,1.16-1.16h3.76a1.16,1.16,0,0,1,1.16,1.16v20.12a1.16,1.16,0,0,1-1.16,1.16m9.79,0h-3.77a1.16,1.16,0,0,1-1.16-1.16V318.55a1.16,1.16,0,0,1,1.16-1.16h3.77a1.16,1.16,0,0,1,1.16,1.16v20.12a1.16,1.16,0,0,1-1.16,1.16m-19.63,0h-3.77a1.16,1.16,0,0,1-1.16-1.16V318.55a1.16,1.16,0,0,1,1.16-1.16h3.77a1.16,1.16,0,0,1,1.16,1.16v20.12a1.16,1.16,0,0,1-1.16,1.16M989.83,452v-4.58a1,1,0,0,1,1-1h9.14a1,1,0,0,1,1,1v4.26Zm9.91,16.28H991a1.15,1.15,0,0,1-1.16-1.16v-8.75a1.15,1.15,0,0,1,1.16-1.16h8.75a1.16,1.16,0,0,1,1.17,1.16v8.75a1.16,1.16,0,0,1-1.17,1.16M1025.23,452v-4.58a1,1,0,0,1,1-1h9.13a1,1,0,0,1,1,1v4.26Zm9.92,16.28h-8.76a1.16,1.16,0,0,1-1.16-1.16v-8.75a1.15,1.15,0,0,1,1.16-1.16h8.76a1.15,1.15,0,0,1,1.16,1.16v8.75a1.16,1.16,0,0,1-1.16,1.16M904,451.71v-4.27a1,1,0,0,1,1-1h9.14a1,1,0,0,1,1,1V452Zm9.93,16.61h-8.76a1.15,1.15,0,0,1-1.16-1.16v-8.77a1.15,1.15,0,0,1,1.16-1.16h8.76a1.16,1.16,0,0,1,1.16,1.16v8.77a1.16,1.16,0,0,1-1.16,1.16m-45.34-16.61v-4.27a1,1,0,0,1,1-1h9.14a1,1,0,0,1,1,1V452Zm9.92,16.61h-8.76a1.16,1.16,0,0,1-1.16-1.16v-8.77a1.16,1.16,0,0,1,1.16-1.16h8.76a1.16,1.16,0,0,1,1.17,1.16v8.77a1.16,1.16,0,0,1-1.17,1.16m68.42-16.61v-4.27a1,1,0,0,1,1-1H957a1,1,0,0,1,1,1V452Zm9.92,16.61h-8.76a1.16,1.16,0,0,1-1.16-1.16v-8.77a1.16,1.16,0,0,1,1.16-1.16h8.76a1.16,1.16,0,0,1,1.17,1.16v8.77a1.16,1.16,0,0,1-1.17,1.16m98.49-14.54H849.65a1.16,1.16,0,0,1-1.16-1.17v-.69a1.16,1.16,0,0,1,1.16-1.16H1055.3a1.15,1.15,0,0,1,1.15,1.16v.69a1.15,1.15,0,0,1-1.15,1.17m0,24.33H849.63a1.16,1.16,0,0,1-1.16-1.16v-4.86a1.15,1.15,0,0,1,1.16-1.16h205.66a1.15,1.15,0,0,1,1.16,1.16V477a1.15,1.15,0,0,1-1.16,1.16" transform="translate(-848.47 -284.73)"/></g></g></svg>