<svg width="104" height="104" viewBox="0 0 104 104" fill="none" xmlns="http://www.w3.org/2000/svg">
<rect width="104" height="104" fill="#0D9148"/>
<g clip-path="url(#clip0_102_8)">
<path d="M52.9621 21H57.2142V26.7231C64.3801 26.7231 71.5453 26.7375 78.7106 26.7014C79.9207 26.7512 81.2521 26.6659 82.3041 27.3882C83.0411 28.447 82.9558 29.7919 83.0056 31.0081C82.9701 43.4273 82.9844 55.8396 82.9919 68.2514C82.9564 70.3335 83.1849 72.4579 82.7485 74.5114C82.4622 75.9994 80.6726 76.0349 79.4768 76.0853C72.0607 76.1064 64.6378 76.071 57.2142 76.0853V82.5238H52.7686C41.8592 80.5419 30.928 78.711 20.0049 76.8007V26.7306C30.9933 24.8202 41.9811 22.939 52.9621 21Z" fill="white"/>
<path d="M57.214 28.8693H80.8367V73.9391H57.214V69.6467H62.9407V64.639H57.214V61.7774H62.9407V56.7697H57.214V53.9081H62.9407V48.9003H57.214V46.0388H62.9407V41.031H57.214V38.1694H62.9407V33.1617H57.214V28.8693Z" fill="#0D9048"/>
<path d="M65.8041 33.1617H75.8258V38.1694H65.8041V33.1617Z" fill="white"/>
<path d="M41.2078 39.8646C42.8256 39.7502 44.4509 39.65 46.0755 39.5716C44.1672 43.4883 42.2416 47.3967 40.299 51.2966C42.2678 55.3028 44.2785 59.2804 46.2542 63.2866C44.5309 63.1878 42.8083 63.0781 41.0864 62.9575C39.8695 59.974 38.3874 57.0913 37.5141 53.9722C36.5411 56.8767 35.1518 59.6163 34.0357 62.4642C32.4677 62.4424 30.8997 62.3783 29.3323 62.3137C31.1718 58.7155 32.947 55.0882 34.8437 51.5112C33.2334 47.8267 31.465 44.2142 29.8042 40.5514C31.3791 40.4581 32.9539 40.3654 34.5288 40.2795C35.5951 43.077 36.7616 45.8379 37.6429 48.7069C38.5873 45.6667 39.9978 42.8052 41.2078 39.8646Z" fill="#0D9048"/>
<path d="M65.8041 41.031H75.8258V46.0388H65.8041V41.031ZM65.8041 48.9003H75.8258V53.9081H65.8041V48.9003ZM65.8041 56.7697H75.8258V61.7774H65.8041V56.7697ZM65.8041 64.639H75.8258V69.6467H65.8041V64.639Z" fill="white"/>
</g>
<defs>
<clipPath id="clip0_102_8">
<rect width="63.0244" height="61.5238" fill="white" transform="translate(20 21)"/>
</clipPath>
</defs>
</svg>
