<svg width="104" height="104" viewBox="0 0 104 104" fill="none" xmlns="http://www.w3.org/2000/svg">
<rect width="104" height="104" fill="#C80A0A"/>
<g clip-path="url(#clip0_102_35)">
<path d="M82.9815 21H20.0185C20.0083 21 20 21.0081 20 21.018V82.522C20 82.5319 20.0083 82.54 20.0185 82.54H82.9815C82.9917 82.54 83 82.5319 83 82.522V21.018C83 21.0081 82.9917 21 82.9815 21Z" fill="white"/>
<path d="M70.8184 57.299C69.711 56.097 67.25 55.496 63.9278 55.496C61.959 55.496 59.8672 55.7364 57.4063 56.097C54.8006 53.7129 52.636 50.9072 51.0078 47.8035C52.2383 44.1977 53.0996 40.712 53.0996 38.0677C53.0996 36.0244 52.3614 32.7791 49.4082 32.7791C48.5469 32.7791 47.8086 33.2599 47.3164 33.9811C46.086 36.1446 46.5782 40.9524 48.916 46.0006C47.2082 50.8244 45.1523 55.5238 42.7637 60.0635C36.2422 62.7077 31.9356 65.5924 31.5664 67.8761C31.3203 68.9579 32.0586 70.7608 34.6426 70.7608C38.4571 70.7608 42.6407 65.352 45.8399 59.8231C49.533 58.5826 53.3173 57.6182 57.1602 56.9384C61.836 60.9048 65.8965 61.5058 67.8653 61.5058C71.8028 61.5058 72.1719 58.7413 70.8184 57.299ZM47.9317 34.3417C48.916 32.8993 51.1309 33.3801 51.1309 36.2648C51.1309 38.1879 50.5157 41.313 49.2852 44.9188C47.0703 39.8706 47.0703 35.9042 47.9317 34.3417ZM32.3047 67.9963C32.6739 66.0732 36.3653 63.4289 42.1485 61.1452C38.9492 66.4338 35.75 69.7993 33.7813 69.7993C32.5508 69.7993 32.1817 68.7175 32.3047 67.9963ZM56.545 56.2172C53.0778 56.8483 49.664 57.7322 46.3321 58.8615C48.1533 55.6505 49.6374 52.2678 50.7617 48.7651C52.379 51.4651 54.3205 53.9668 56.545 56.2172V56.2172ZM58.1446 56.698C62.0821 56.097 65.4043 56.2172 66.8809 56.4576C70.4492 57.1788 69.2188 61.3856 65.2813 60.424C62.4512 59.8231 60.1133 58.2605 58.1446 56.698Z" fill="#C80A0A"/>
</g>
<defs>
<clipPath id="clip0_102_35">
<rect width="63" height="61.54" fill="white" transform="translate(20 21)"/>
</clipPath>
</defs>
</svg>
