<svg width="104" height="104" viewBox="0 0 104 104" fill="none" xmlns="http://www.w3.org/2000/svg">
<rect width="104" height="104" fill="#2A5699"/>
<g clip-path="url(#clip0_102_25)">
<path d="M52.9249 21H57.204V26.7228C64.8605 26.7657 72.5102 26.6438 80.1598 26.7657C81.7913 26.6009 83.0719 27.8673 82.9219 29.4983C83.0432 43.5907 82.8933 57.69 82.9934 71.7823C82.9219 73.2273 83.1365 74.8297 82.299 76.1099C81.2543 76.8539 79.9016 76.7612 78.6857 76.8178C71.5221 76.7829 64.3665 76.7972 57.204 76.7972V82.52H52.732C41.8417 80.5313 30.9216 78.7075 20.0096 76.7972C20.0022 60.1084 20.0096 43.419 20.0096 26.7371C30.9783 24.82 41.9556 22.9532 52.9255 21H52.9249Z" fill="white"/>
<path d="M57.2042 28.8688H80.8177V74.6512H57.2042V68.9284H75.8088V66.067H57.2042V62.4902H75.8088V59.6288H57.2042V56.0521H75.8088V53.1907H57.2042V49.614H75.8088V46.7526H57.2042V43.1758H75.8088V40.3144H57.2042V36.7377H75.8088V33.8763H57.2042V28.8688ZM34.7927 41.5088C36.1523 41.4304 37.5119 41.3731 38.8714 41.3016C39.8229 46.1305 40.796 50.9514 41.8264 55.7585C42.6353 50.794 43.53 45.8438 44.395 40.8867C45.8261 40.8369 47.2573 40.7579 48.6815 40.6721C47.0643 47.6035 45.6475 54.5928 43.8798 61.4813C42.6845 62.1039 40.8956 61.4527 39.4788 61.5528C38.5268 56.8178 37.418 52.1102 36.5662 47.3534C35.7293 51.9746 34.6416 56.5528 33.6827 61.1459C32.3089 61.0744 30.9281 60.9886 29.5462 60.8953C28.359 54.6002 26.9633 48.3481 25.8545 42.0387C27.0778 41.9815 28.3086 41.9311 29.5325 41.8882C30.2692 46.4447 31.1067 50.9806 31.7507 55.5439C32.7611 50.8661 33.7909 46.1877 34.7927 41.5088V41.5088Z" fill="#2A5699"/>
</g>
<defs>
<clipPath id="clip0_102_25">
<rect width="63" height="61.52" fill="white" transform="translate(20 21)"/>
</clipPath>
</defs>
</svg>
